<?xml version="1.0" standalone="no"?>
<!DOCTYPE svg PUBLIC "-//W3C//DTD SVG 20010904//EN"
 "http://www.w3.org/TR/2001/REC-SVG-20010904/DTD/svg10.dtd">
<svg version="1.0" xmlns="http://www.w3.org/2000/svg"
 width="1912.000000pt" height="1520.000000pt" viewBox="0 0 1912.000000 1520.000000"
 preserveAspectRatio="xMidYMid meet">
<metadata>
Created by potrace 1.16, written by Peter Selinger 2001-2019
</metadata>
<g transform="translate(0.000000,1520.000000) scale(0.100000,-0.100000)"
fill="#000000" stroke="none">
<path d="M5331 15193 c-29 -6 -51 -26 -51 -47 0 -8 -9 -18 -20 -21 -11 -3 -20
-13 -20 -21 0 -8 -17 -31 -39 -52 -21 -20 -45 -51 -54 -68 -9 -17 -23 -34 -32
-37 -11 -5 -15 -22 -15 -66 0 -33 -5 -63 -11 -67 -43 -26 -80 -233 -93 -520
-3 -50 -9 -109 -15 -131 -12 -42 -7 -319 7 -436 6 -51 5 -72 -4 -85 -11 -13
-13 -14 -14 -2 0 11 -3 11 -12 2 -9 -9 -8 -16 5 -30 31 -34 45 -232 17 -232
-5 0 -7 -28 -4 -62 2 -35 9 -128 14 -208 21 -291 24 -461 9 -470 -7 -5 -21 -4
-30 1 -21 11 -79 12 -79 2 0 -5 18 -9 41 -11 89 -6 109 -55 108 -262 0 -149
-8 -209 -23 -188 -10 13 -67 38 -87 38 -23 0 -4 -17 36 -33 25 -11 46 -22 46
-25 1 -4 3 -17 4 -29 1 -13 7 -29 14 -37 18 -22 1 -202 -19 -199 -12 2 -15
-10 -17 -55 -4 -108 -15 -176 -31 -188 -11 -8 -12 -13 -4 -18 7 -4 12 -18 12
-32 0 -16 -4 -23 -11 -19 -12 8 -123 35 -126 31 -2 -2 22 -16 54 -32 59 -30
70 -46 37 -53 -10 -2 -22 -8 -25 -13 -4 -7 -14 -6 -28 2 -23 12 -101 23 -101
15 0 -3 15 -11 33 -19 46 -20 74 -55 80 -103 4 -34 2 -43 -10 -43 -9 0 -12 -6
-8 -19 3 -10 1 -30 -4 -45 -13 -32 -35 -33 -99 -7 -26 11 -60 22 -77 25 -29 5
-30 5 -5 -6 35 -17 36 -18 20 -28 -10 -6 -2 -11 28 -19 54 -15 88 -47 96 -90
5 -30 4 -33 -14 -27 -68 21 -64 22 -47 -10 8 -16 27 -39 41 -52 33 -28 25 -46
-12 -26 -39 20 -45 17 -26 -11 16 -24 16 -25 -9 -25 -14 0 -29 5 -33 11 -4 8
-9 8 -13 1 -4 -7 -22 -7 -56 0 -46 10 -100 44 -157 101 -10 9 -23 17 -30 17
-19 0 125 -129 145 -130 23 0 53 -16 78 -41 23 -23 9 -25 -31 -4 -27 14 -29
14 -35 -5 -10 -30 2 -53 35 -72 39 -22 41 -51 4 -42 -21 5 -25 4 -19 -6 6 -10
1 -12 -25 -6 -31 6 -32 5 -18 -11 8 -10 18 -30 22 -45 5 -22 13 -28 34 -29 23
-2 24 -2 5 -6 -13 -2 -23 -11 -23 -18 0 -20 -122 -15 -147 7 -10 8 -49 32 -88
53 l-70 39 45 -42 c39 -36 62 -50 130 -82 8 -4 16 -17 18 -29 2 -11 8 -21 13
-21 6 0 8 -9 4 -20 -5 -15 2 -24 27 -40 l33 -20 -37 0 c-20 0 -39 4 -42 9 -8
13 -63 21 -87 13 -19 -7 -18 -10 16 -34 35 -25 36 -27 17 -37 -15 -8 -28 -8
-46 0 -20 9 -29 9 -41 -1 -8 -7 -15 -15 -15 -19 0 -3 27 -24 60 -46 64 -42 73
-55 40 -55 -14 0 -20 -6 -18 -16 2 -10 -10 -24 -29 -35 -18 -10 -33 -14 -33
-9 0 6 -7 10 -15 10 -25 0 -17 -28 14 -46 38 -22 31 -34 -20 -34 -21 0 -39 -4
-39 -10 0 -14 35 -30 64 -30 14 0 26 -4 26 -9 0 -9 -71 -21 -121 -21 -19 0
-29 -5 -29 -15 0 -11 -5 -12 -26 -5 -29 11 -91 12 -114 2 -34 -16 -20 -39 40
-68 78 -37 78 -51 -2 -50 -58 1 -63 -1 -66 -21 -2 -13 -4 -24 -5 -24 -1 -1
-49 -5 -107 -9 -113 -9 -170 -19 -170 -29 0 -13 71 -51 110 -60 47 -11 63 -21
33 -21 -12 0 -33 -13 -46 -30 -14 -16 -32 -30 -40 -30 -8 0 -17 -10 -20 -21
-4 -15 -11 -20 -22 -15 -9 3 -21 3 -27 0 -16 -10 13 -24 50 -24 49 0 30 -17
-28 -25 -38 -5 -50 -11 -48 -23 2 -11 -9 -19 -34 -25 -43 -10 -51 -27 -13 -27
36 0 31 -17 -7 -25 -53 -12 -71 -24 -58 -40 9 -10 5 -15 -20 -20 -38 -8 -39
-25 -1 -25 16 0 34 -6 41 -14 12 -15 -5 -21 -83 -28 -35 -4 -36 -22 -2 -26 14
-2 33 -14 41 -28 9 -13 22 -23 28 -22 6 2 13 -1 16 -6 5 -9 -69 -39 -122 -50
-16 -4 -28 -13 -28 -21 0 -10 17 -15 68 -17 l67 -3 -32 -23 c-18 -13 -42 -24
-53 -25 -15 -1 -20 -8 -20 -28 0 -15 -6 -29 -12 -32 -10 -4 -10 -7 -1 -17 10
-11 9 -16 -5 -26 -16 -12 -15 -13 6 -14 23 0 30 -14 12 -25 -19 -12 -10 -20
22 -20 17 0 33 -5 35 -10 3 -10 -40 -36 -80 -49 -10 -3 -16 -10 -12 -15 3 -6
-5 -19 -17 -30 -24 -23 -18 -27 14 -10 15 8 22 8 27 0 4 -6 27 -15 50 -19 l43
-7 -61 -34 c-63 -36 -78 -53 -38 -44 18 4 16 2 -7 -11 -15 -9 -39 -16 -52 -16
-13 0 -24 -4 -24 -10 0 -5 20 -10 45 -10 50 0 60 -14 18 -25 -21 -5 -24 -8
-12 -16 12 -8 10 -13 -10 -29 -15 -13 -18 -21 -10 -21 8 -1 21 -3 29 -4 8 -1
20 -3 26 -4 14 -1 6 -100 -9 -119 -8 -10 -7 -16 3 -22 19 -12 -25 -63 -72 -85
-71 -32 -40 -41 46 -14 45 14 43 3 -5 -40 -37 -32 -42 -41 -31 -54 9 -10 10
-17 2 -22 -5 -3 -10 -13 -10 -21 0 -10 12 -14 45 -14 50 0 59 -14 20 -32 -24
-11 -26 -18 -13 -67 2 -9 -9 -17 -29 -23 -30 -8 -46 -28 -23 -28 6 0 10 -9 10
-20 0 -11 -4 -20 -9 -20 -5 0 -16 -6 -23 -12 -8 -7 -22 -18 -33 -24 -33 -19
-29 -34 10 -34 33 0 85 -24 85 -39 0 -3 -20 -17 -45 -31 -28 -15 -45 -32 -45
-43 0 -10 -6 -19 -12 -21 -39 -10 -125 -40 -138 -48 -10 -6 0 -8 30 -4 24 2
46 10 48 15 5 14 132 15 132 2 0 -6 -20 -13 -45 -17 -38 -5 -45 -9 -40 -24 4
-14 0 -19 -17 -22 -15 -2 -24 -11 -26 -25 -3 -20 1 -23 32 -23 20 0 36 -4 36
-9 0 -13 -57 -31 -96 -31 -32 0 -33 -1 -22 -24 6 -14 20 -27 32 -29 18 -3 16
-6 -11 -16 -51 -20 -42 -41 17 -41 38 0 50 -4 50 -15 0 -10 -10 -15 -27 -15
-16 0 -35 -5 -43 -10 -13 -9 -13 -11 0 -20 8 -5 21 -10 28 -10 20 0 14 -18
-13 -36 -14 -9 -25 -21 -25 -28 0 -6 -11 -20 -25 -30 -13 -10 -22 -22 -19 -27
3 -5 0 -9 -6 -9 -6 0 -25 -14 -42 -30 -16 -17 -33 -28 -38 -25 -11 7 -80 -26
-80 -37 0 -17 40 -7 50 12 11 21 30 27 30 10 0 -6 -23 -25 -50 -42 -28 -17
-50 -37 -50 -44 0 -16 -26 -19 -35 -4 -3 6 -16 10 -28 10 l-22 -1 23 -12 c22
-13 22 -14 5 -29 -10 -9 -29 -19 -43 -23 -29 -9 -55 -33 -46 -42 4 -4 27 -2
51 5 56 15 95 15 95 2 0 -6 6 -10 13 -9 52 7 63 -13 16 -30 -45 -15 -27 -35
26 -28 39 6 65 -4 65 -24 0 -11 -118 -69 -140 -69 -26 0 -25 -15 0 -33 35 -24
10 -60 -58 -82 -31 -11 -83 -32 -114 -47 -32 -16 -77 -32 -100 -37 l-43 -8 57
-8 c32 -4 55 -11 52 -16 -3 -5 -20 -7 -38 -4 -24 5 -36 2 -50 -14 l-19 -21 61
0 c35 0 62 -4 62 -10 0 -5 -6 -10 -13 -10 -7 0 -35 -14 -63 -32 -27 -17 -75
-44 -106 -60 -65 -31 -74 -43 -25 -34 55 10 7 -19 -58 -34 -63 -15 -88 -35
-56 -45 12 -3 25 -3 31 0 5 3 10 -3 10 -13 0 -11 6 -22 14 -25 20 -8 125 2
158 15 33 12 71 3 48 -12 -8 -6 -28 -10 -43 -10 -16 0 -26 -4 -22 -10 3 -6 22
-10 41 -10 26 0 34 -4 34 -17 0 -25 -132 -91 -195 -98 -27 -4 -51 -8 -53 -10
-8 -7 116 -20 238 -24 40 -1 34 -10 -30 -44 -25 -13 -58 -31 -75 -40 -37 -19
-101 -47 -110 -47 -3 0 -13 -6 -21 -14 -12 -13 -12 -15 4 -20 10 -4 35 -4 55
-2 21 3 37 1 37 -4 0 -13 -79 -70 -96 -70 -8 0 -13 -9 -11 -19 1 -11 -2 -20
-8 -21 -14 -2 -35 -21 -35 -32 0 -5 7 -5 18 1 33 17 144 41 193 41 47 0 49 -1
39 -20 -6 -11 -19 -20 -30 -20 -26 0 -96 -49 -92 -65 4 -19 -23 -36 -65 -40
-20 -1 -39 -8 -41 -14 -2 -6 -14 -8 -27 -5 -12 3 -26 1 -29 -5 -4 -7 2 -11 16
-12 13 -1 28 -2 33 -4 6 -1 16 -3 24 -3 19 -3 -30 -52 -52 -52 -10 0 -17 -6
-16 -12 3 -31 -16 -56 -64 -83 -53 -30 -51 -40 9 -33 34 4 34 4 16 -15 -11
-10 -34 -22 -53 -27 -19 -5 -50 -15 -70 -22 -31 -12 -35 -16 -28 -35 11 -30
50 -38 87 -19 19 10 33 12 37 6 3 -6 23 -10 45 -10 33 0 37 -3 33 -19 -4 -16
-11 -18 -38 -14 -28 4 -33 2 -38 -19 -7 -27 -88 -84 -143 -101 -18 -6 -42 -19
-51 -30 -17 -20 -17 -20 2 -12 11 4 31 8 44 8 14 -1 49 10 79 23 30 13 70 26
88 28 18 3 39 8 46 12 10 6 9 3 -1 -9 -7 -9 -19 -17 -26 -17 -7 0 -18 -7 -25
-16 -8 -8 -28 -21 -47 -29 -18 -8 -33 -19 -33 -24 0 -14 27 -14 35 -1 8 14 48
13 43 -1 -5 -14 -39 -32 -113 -60 -55 -20 -274 -117 -284 -126 -2 -1 -2 -5 1
-8 2 -3 22 3 44 14 21 10 55 24 74 31 74 25 71 25 64 -9 -5 -21 -3 -31 6 -31
7 0 10 -8 7 -20 -8 -30 9 -24 49 15 19 19 40 35 47 35 7 -1 1 -10 -12 -21 -13
-11 -21 -22 -17 -26 9 -10 80 15 106 37 23 20 60 27 60 12 0 -7 -61 -47 -193
-127 -18 -11 -53 -36 -78 -56 -24 -19 -77 -57 -117 -83 -75 -48 -131 -90 -218
-161 -134 -110 -222 -187 -254 -221 -38 -42 -13 -24 60 42 58 54 144 124 250
205 108 82 361 251 368 245 2 -3 -5 -21 -16 -40 -17 -29 -18 -37 -7 -46 10 -8
23 -7 52 5 21 10 63 18 94 20 31 1 82 12 113 24 70 26 86 27 61 2 -28 -27
-114 -71 -139 -71 -12 -1 -32 -7 -46 -15 -14 -8 -35 -14 -47 -15 -12 0 -28 -6
-35 -12 -21 -20 -61 -41 -53 -29 3 6 0 11 -9 11 -17 0 -106 -37 -106 -44 0 -3
21 -3 46 1 47 6 47 6 42 -20 -5 -27 5 -36 17 -17 3 6 14 10 25 10 10 0 20 7
24 15 6 16 46 21 46 5 0 -5 -7 -13 -16 -18 -26 -15 1 -24 31 -10 17 8 29 8 36
1 12 -12 -28 -49 -95 -88 -23 -13 -73 -54 -111 -91 -39 -37 -80 -73 -93 -82
-13 -8 -27 -23 -33 -33 -9 -17 -7 -18 16 -9 49 19 83 39 89 55 3 9 26 25 51
36 30 13 45 26 45 38 0 21 15 36 48 45 34 11 27 -5 -31 -67 -48 -52 -77 -90
-77 -101 0 -3 22 6 49 19 27 14 56 25 64 25 9 0 19 5 22 10 3 6 15 10 26 10
17 0 18 -3 8 -22 -7 -13 -23 -31 -37 -42 -14 -11 -39 -35 -56 -54 -32 -35
-112 -81 -143 -83 -10 0 -5 -5 12 -10 17 -5 42 -7 58 -5 48 9 28 -16 -23 -29
-40 -10 -97 -21 -122 -23 -10 -1 -18 -7 -18 -13 0 -8 14 -10 42 -5 24 3 90 11
148 17 58 6 107 14 110 18 3 5 15 13 27 20 62 32 27 -10 -42 -51 -41 -24 -44
-28 -20 -23 17 4 44 13 60 20 24 11 91 14 148 6 20 -3 2 -20 -42 -41 -53 -24
-82 -20 -59 8 7 9 -4 3 -25 -12 -39 -30 -45 -47 -8 -24 18 11 23 11 30 0 6
-11 17 -11 55 -1 26 6 49 9 53 6 7 -7 -47 -73 -58 -70 -4 1 -5 -5 -3 -15 3 -9
-6 -38 -19 -65 -13 -26 -23 -47 -21 -47 3 0 21 26 41 57 49 78 93 114 93 78 0
-8 -5 -15 -10 -15 -11 0 -50 -58 -50 -74 0 -5 13 8 28 29 34 45 123 95 171 95
l33 0 -23 -21 -24 -20 25 7 c14 4 29 13 33 20 9 16 57 19 57 4 0 -5 -4 -10 -9
-10 -4 0 -28 -16 -52 -35 -49 -39 -141 -85 -170 -85 -11 0 -28 -6 -39 -12 -17
-11 -22 -10 -28 0 -6 9 -26 -5 -67 -47 -61 -62 -79 -72 -50 -27 10 14 14 26
11 26 -10 0 -58 -57 -77 -91 -9 -16 -22 -36 -29 -44 -7 -9 -10 -18 -6 -22 3
-4 22 13 42 36 20 23 42 40 50 37 15 -6 66 32 59 44 -8 12 35 50 57 50 23 0
23 -5 -4 -30 -24 -22 -18 -26 13 -10 10 6 19 19 19 30 0 16 6 18 48 15 62 -4
208 27 274 59 65 31 114 44 104 27 -4 -6 -3 -11 2 -11 13 0 106 52 110 62 10
23 19 3 12 -25 -12 -54 -51 -103 -123 -152 -62 -42 -211 -115 -237 -115 -6 0
-8 -4 -5 -10 3 -5 32 -7 68 -4 l62 5 -39 -25 c-22 -14 -76 -39 -120 -57 -45
-17 -85 -35 -91 -40 -15 -14 19 -11 58 6 51 21 80 20 45 -3 -28 -16 -38 -42
-17 -42 5 0 7 -4 4 -10 -3 -5 -16 -10 -29 -10 -14 0 -34 -14 -55 -40 -18 -23
-26 -40 -19 -40 33 -1 40 -16 24 -49 -9 -17 -20 -31 -24 -31 -5 0 -28 -20 -53
-45 -24 -25 -58 -52 -76 -61 -29 -15 -73 -49 -147 -118 l-31 -28 35 21 c19 11
51 29 70 39 85 43 210 114 215 123 9 13 35 11 35 -3 0 -12 -50 -55 -158 -136
-43 -33 -51 -49 -18 -36 9 3 16 10 16 15 0 17 110 61 158 63 7 1 35 26 63 56
37 41 49 49 46 33 -6 -28 3 -29 34 -4 27 21 100 54 106 47 2 -2 -10 -14 -27
-27 -74 -56 -150 -150 -150 -185 0 -11 12 -5 37 20 21 20 41 36 46 36 5 0 7 6
4 13 -7 18 -1 25 48 63 63 49 125 86 138 81 6 -2 -28 -32 -75 -68 -48 -35 -89
-74 -92 -86 -7 -25 -84 -89 -103 -85 -6 1 -17 -6 -22 -17 -6 -11 -27 -25 -46
-31 -19 -6 -35 -16 -35 -20 0 -5 7 -7 15 -4 8 4 15 2 15 -3 0 -14 -59 -93 -69
-93 -5 0 -34 -21 -65 -47 -47 -38 -54 -48 -41 -56 12 -7 25 2 57 38 22 25 42
44 44 42 2 -2 0 -18 -5 -35 l-9 -31 44 5 c29 3 44 1 44 -6 0 -7 8 -9 21 -5 15
5 19 4 15 -4 -4 -6 -13 -11 -19 -11 -7 0 -19 -5 -27 -10 -13 -9 -13 -11 0 -20
12 -7 10 -14 -15 -40 -16 -16 -39 -30 -51 -30 -13 0 -26 -5 -29 -10 -4 -6 7
-10 24 -10 46 0 39 -21 -25 -79 -36 -33 -54 -57 -50 -66 3 -9 -10 -30 -36 -53
-23 -22 -39 -45 -36 -53 3 -10 16 -1 43 28 21 23 42 40 47 37 5 -4 -3 -19 -18
-35 -21 -22 -24 -29 -11 -29 8 0 19 5 22 10 9 15 25 2 25 -21 0 -11 4 -18 10
-14 5 3 7 13 4 23 -4 12 -3 13 3 5 10 -13 18 -12 120 25 28 10 59 24 68 32 13
11 15 10 9 -4 -3 -9 -10 -16 -15 -16 -5 0 -9 -6 -9 -14 0 -15 -62 -68 -94 -80
-10 -3 -16 -9 -13 -12 3 -4 14 -3 24 1 10 5 25 7 35 6 9 -1 19 3 23 9 3 5 10
10 16 10 17 0 9 -19 -21 -50 -17 -17 -30 -35 -30 -40 0 -6 -7 -10 -15 -10 -8
0 -15 -6 -15 -13 0 -8 -11 -24 -25 -37 -14 -13 -25 -27 -25 -32 0 -5 -13 -26
-29 -46 -16 -20 -31 -48 -33 -62 -2 -16 -10 -26 -23 -28 -27 -4 -72 -39 -62
-49 5 -4 12 -1 17 7 5 8 13 11 17 6 8 -8 -5 -20 -57 -49 -69 -38 7 -52 123
-22 40 11 33 -6 -18 -40 -24 -16 -47 -36 -49 -42 -6 -15 10 -17 19 -3 13 20
27 10 21 -15 -7 -28 5 -33 24 -10 7 8 21 15 31 15 10 0 21 4 24 10 3 5 15 10
25 10 18 0 18 -3 -5 -37 -29 -42 -25 -56 8 -25 24 23 47 29 47 13 0 -14 -58
-53 -72 -49 -6 2 -20 -4 -30 -14 -10 -10 -30 -18 -44 -18 -22 0 -24 -3 -15
-14 17 -20 -1 -51 -39 -68 -20 -9 -28 -18 -25 -29 6 -19 -3 -49 -16 -49 -5 0
-9 7 -9 15 0 8 -5 15 -11 15 -5 0 -8 -4 -5 -8 3 -5 -6 -15 -19 -22 -29 -16
-33 -34 -6 -25 40 12 61 13 67 3 4 -6 2 -13 -3 -17 -13 -8 -43 -54 -43 -64 0
-9 42 1 50 13 3 3 13 10 24 13 14 6 17 3 12 -8 -7 -20 -4 -19 46 10 81 48 128
69 135 61 5 -4 -5 -19 -22 -33 -16 -13 -49 -41 -73 -61 -24 -20 -50 -41 -58
-45 -9 -5 -12 -17 -8 -31 4 -17 -2 -29 -25 -49 -17 -14 -31 -30 -31 -36 0 -6
-5 -11 -11 -11 -6 0 -9 -5 -7 -12 4 -12 -52 -68 -69 -68 -4 0 -24 -13 -43 -29
-19 -15 -50 -36 -67 -45 -18 -9 -33 -20 -33 -25 0 -12 113 13 136 30 6 5 25
10 42 12 18 2 40 11 50 20 10 10 27 17 37 17 17 0 16 -3 -5 -25 -13 -14 -31
-25 -41 -25 -9 0 -22 -7 -29 -15 -6 -7 -37 -28 -68 -46 -72 -40 -92 -57 -92
-81 0 -11 3 -18 8 -16 4 2 43 22 87 44 73 38 145 63 145 51 0 -3 -21 -17 -47
-33 -27 -15 -74 -47 -106 -70 -33 -24 -67 -44 -77 -44 -19 0 -70 -40 -70 -55
0 -4 8 -4 18 0 27 11 83 24 131 30 38 5 42 4 29 -8 -8 -8 -27 -22 -43 -31 -87
-47 -84 -70 3 -26 33 16 66 30 72 30 24 0 110 33 121 46 15 18 35 18 43 -1 5
-15 -18 -29 -137 -85 -52 -25 -56 -42 -11 -50 19 -4 25 -8 16 -13 -22 -15 -14
-44 15 -53 16 -4 32 -6 36 -5 5 1 5 -3 2 -9 -4 -6 -14 -9 -22 -6 -8 4 -33 -9
-56 -28 -45 -36 -179 -114 -241 -140 -21 -9 -49 -28 -62 -42 l-24 -25 38 7 37
7 -24 -26 c-13 -14 -36 -29 -52 -32 -16 -4 -29 -11 -29 -16 0 -9 49 -5 110 7
24 5 24 5 5 -16 l-19 -21 49 19 c28 10 70 22 94 26 24 4 49 10 55 14 6 4 25
12 43 18 28 10 30 9 21 -6 -6 -9 -32 -29 -57 -45 -25 -15 -40 -30 -34 -32 12
-4 126 11 183 24 25 5 25 5 -5 -23 -16 -16 -38 -34 -50 -39 -11 -6 -22 -21
-23 -35 -6 -41 -31 -68 -115 -123 -45 -30 -98 -69 -117 -87 -19 -18 -53 -45
-76 -59 -22 -14 -58 -37 -80 -51 l-39 -25 40 -3 c47 -3 136 19 136 33 1 25 33
44 70 42 21 -1 39 -5 39 -8 0 -14 -14 -18 -32 -8 -23 12 -48 -4 -48 -30 0 -28
-50 -63 -115 -81 -74 -21 -98 -30 -107 -44 -13 -19 82 -24 156 -9 66 14 96 10
66 -7 -8 -5 -24 -16 -35 -25 -19 -16 -18 -16 17 -11 l38 5 -28 -24 -27 -24 60
-1 c33 0 76 4 94 10 24 7 39 6 48 -2 10 -8 561 -9 2066 -4 1128 3 2093 8 2142
11 50 3 245 7 435 10 653 10 795 13 940 19 80 3 366 8 635 11 270 3 544 8 610
12 66 3 127 6 135 6 132 -4 918 3 970 8 14 1 50 1 80 1 86 -3 90 -3 175 -2 44
0 119 2 167 4 52 3 90 1 94 -5 3 -5 13 -7 22 -5 10 3 274 8 587 11 839 8 1469
15 1825 20 173 3 653 7 1065 10 883 6 1518 12 2070 20 220 3 703 8 1072 9 369
2 676 7 682 10 6 4 59 9 118 12 138 6 141 7 139 47 -1 26 -8 35 -34 46 -23 10
-32 21 -32 38 0 13 2 23 5 23 23 0 115 -25 133 -37 24 -14 62 -10 62 8 0 6
-12 8 -29 4 -24 -5 -30 -2 -36 14 -4 13 -18 23 -40 27 -18 3 -36 12 -39 20 -3
8 -14 14 -24 14 -24 0 -49 27 -36 40 5 5 24 10 42 12 17 1 32 4 32 5 0 2 -25
17 -55 34 -52 29 -69 49 -43 49 6 0 -8 13 -30 30 -23 17 -48 27 -57 24 -8 -3
-15 -1 -15 4 0 29 104 20 172 -14 37 -19 104 -18 112 1 4 12 11 13 31 5 15 -6
37 -10 50 -10 13 0 45 -10 72 -22 26 -12 53 -22 58 -22 6 -1 15 -7 21 -15 6
-7 19 -14 30 -15 10 -1 44 -14 74 -29 30 -15 66 -27 80 -26 27 0 -148 91 -248
129 -29 11 -58 25 -65 30 -7 6 -31 24 -54 41 -69 49 -55 64 57 61 l75 -1 -70
15 c-79 17 -157 52 -163 73 -4 10 1 12 19 8 13 -4 56 -9 94 -12 l70 -5 -40 19
c-22 11 -46 20 -52 20 -22 2 -113 62 -113 76 0 9 24 14 90 17 74 2 92 6 103
22 8 12 27 19 47 20 44 1 48 18 8 33 -138 48 -158 58 -156 73 5 28 -29 66 -69
78 -22 7 -48 21 -58 32 -10 11 -22 20 -28 20 -17 0 -96 55 -93 65 1 6 16 9 32
8 199 -14 320 -20 322 -18 7 7 -74 26 -131 32 -41 4 -61 11 -68 24 -8 16 -6
18 22 14 17 -2 40 0 51 4 18 6 14 9 -23 19 -24 6 -71 17 -104 23 -33 6 -73 18
-89 26 -27 14 -28 16 -11 25 10 6 51 8 99 5 l80 -5 -24 19 c-14 10 -36 22 -50
25 -63 15 -151 48 -161 60 -9 12 -4 14 30 14 23 0 41 5 41 11 0 6 -9 9 -20 6
-11 -3 -23 1 -28 7 -4 7 -27 25 -50 40 -24 15 -41 30 -38 33 11 11 -15 31 -33
26 -10 -3 -21 -1 -24 4 -6 10 16 13 86 14 34 0 47 4 47 14 0 9 -10 15 -25 15
-25 0 -33 14 -15 25 18 11 1 23 -43 30 -54 8 -137 34 -160 51 -18 12 -18 13 1
23 12 6 45 12 74 12 68 2 113 11 109 24 -3 9 35 37 69 51 8 3 25 10 38 15 40
16 13 29 -60 29 -41 0 -83 6 -101 15 -18 8 -50 18 -72 23 -25 5 -40 13 -40 22
0 18 35 18 228 7 70 -5 127 -5 127 -1 0 11 -34 33 -51 34 -17 0 -151 40 -159
47 -11 10 28 23 68 23 23 0 42 4 42 9 0 11 -61 27 -170 47 -194 34 -208 39
-169 60 13 7 39 13 57 14 32 0 42 13 21 25 -6 4 -8 13 -5 21 3 8 -1 14 -9 14
-8 0 -37 5 -65 11 -48 10 -50 12 -49 42 1 18 4 40 6 50 5 18 32 23 49 8 5 -4
26 -6 47 -4 46 6 52 33 6 33 -55 0 -270 35 -294 49 -17 9 49 21 153 28 63 4
106 11 113 19 12 15 5 17 -96 34 -38 6 -80 13 -92 16 -46 9 -21 22 55 29 77 6
202 54 202 76 0 12 -44 29 -78 29 -24 1 -25 2 -9 11 11 6 46 9 85 6 65 -5 66
-5 33 9 -18 8 -51 14 -72 14 -27 0 -39 4 -39 14 0 17 22 26 62 26 17 0 28 3
24 7 -3 4 -69 10 -145 13 -93 4 -145 11 -155 19 -23 19 -20 30 9 37 44 11 27
19 -43 20 -37 1 -78 6 -92 12 -23 11 -22 11 15 11 22 0 71 7 110 15 38 9 88
16 110 17 22 1 51 4 65 8 56 15 -9 26 -147 24 -91 -2 -143 1 -143 7 0 6 -12 9
-27 8 -23 -1 -181 25 -230 38 -22 6 -14 23 17 39 33 17 180 21 210 5 23 -13
50 -3 43 16 -3 7 -21 24 -41 36 -21 12 -41 28 -45 35 -4 7 -17 13 -27 13 -12
0 -20 7 -20 18 0 30 16 45 43 40 32 -6 56 7 42 21 -7 7 -23 7 -49 0 -31 -9
-47 -7 -90 10 -28 11 -65 23 -83 26 -33 6 -46 25 -37 49 7 19 -26 36 -70 36
-70 0 -87 21 -31 40 19 6 35 14 35 17 0 13 -36 32 -60 33 -25 0 -153 35 -180
50 -9 4 -43 14 -75 21 l-60 14 80 6 c94 8 217 38 212 53 -2 6 -15 11 -28 11
-13 0 -30 4 -38 9 -23 15 8 26 72 26 49 0 57 3 57 19 0 20 53 51 88 51 12 0
24 5 27 10 3 6 -3 10 -14 10 -11 0 -22 4 -25 8 -3 5 -22 9 -43 10 -21 1 -54 6
-73 12 -19 5 -56 10 -82 10 -26 0 -71 9 -100 20 -29 11 -65 20 -80 20 -30 0
-78 19 -78 31 0 12 107 31 163 29 137 -6 127 8 -15 21 -158 14 -249 30 -290
52 -24 12 -63 20 -105 21 -38 2 -79 6 -92 11 l-23 7 25 13 c13 7 41 15 62 19
56 11 136 43 165 67 l25 20 -25 -7 c-14 -3 -34 -14 -44 -23 -18 -15 -19 -15
-13 2 5 14 0 17 -32 17 -45 0 -69 21 -46 40 8 6 38 18 67 25 53 12 53 12 25
23 -16 7 -80 12 -144 12 -129 0 -189 17 -178 51 6 18 -25 59 -45 59 -5 0 -10
7 -10 16 0 11 -6 15 -20 11 -13 -3 -21 1 -26 15 -7 23 9 38 41 38 35 0 66 12
62 23 -2 6 -18 15 -35 19 -32 9 -45 39 -22 53 5 3 10 12 10 20 0 9 -15 13 -51
13 -56 1 -64 5 -64 30 0 12 -10 18 -37 20 -50 4 -50 28 -1 37 21 4 50 16 67
28 26 18 27 22 12 32 -22 17 -20 45 3 45 23 0 35 26 16 33 -7 3 -33 0 -57 -6
-41 -12 -78 -13 -180 -9 -42 2 -48 5 -54 27 -5 21 -12 25 -43 25 -52 0 -111
11 -111 21 0 4 16 13 35 20 28 11 33 17 29 35 -4 16 0 24 15 29 12 4 18 12 14
21 -3 9 1 14 14 14 11 0 25 11 31 25 l11 24 -177 -5 c-146 -4 -180 -3 -197 10
-19 14 -19 15 10 22 28 7 44 20 45 36 0 4 -19 6 -42 5 l-42 -2 -1 39 c-2 47
-40 86 -86 86 -36 0 -40 29 -6 50 23 14 147 153 147 164 0 10 -36 -8 -82 -41
-41 -29 -54 -34 -95 -31 -38 2 -50 8 -59 26 -17 34 -6 71 23 78 28 7 19 21
-17 26 l-25 3 33 32 c19 18 31 37 27 43 -9 15 -87 12 -110 -4 -19 -13 -90 -39
-110 -41 -5 0 -35 -7 -65 -14 -60 -14 -140 -12 -141 4 -1 5 31 25 70 45 39 19
71 38 71 41 0 12 -71 -9 -90 -26 -11 -10 -30 -15 -52 -13 l-33 4 34 15 c32 14
33 16 17 31 -17 18 -22 43 -6 33 6 -3 10 0 10 8 0 8 -7 17 -15 21 -12 4 -9 14
16 51 17 25 29 48 27 50 -3 4 -56 -40 -108 -89 -16 -15 -53 -20 -141 -17 -54
1 -56 2 -65 34 -8 26 -15 33 -41 35 -17 2 -37 10 -43 18 -8 9 -31 14 -61 14
-48 0 -54 5 -50 37 1 7 -36 23 -86 39 -79 24 -140 48 -183 74 -8 5 -36 16 -62
26 -26 9 -49 23 -53 32 -9 25 2 26 38 3 19 -11 39 -21 45 -21 20 0 -52 68 -94
88 -22 11 -46 28 -53 36 -8 9 -22 16 -32 16 -15 0 -59 47 -59 63 0 10 41 1 49
-11 9 -15 42 -13 42 3 0 5 -19 16 -43 25 -24 8 -45 18 -46 23 -2 4 -8 5 -13 1
-5 -3 -9 -1 -9 4 0 6 -12 13 -26 16 -29 8 -114 89 -114 109 0 8 -19 38 -41 66
-23 29 -39 54 -37 56 4 4 39 12 61 14 20 2 2 19 -38 35 -24 10 -42 22 -39 27
2 4 12 5 21 2 14 -5 13 -1 -5 24 -12 17 -22 34 -22 37 0 14 44 4 72 -15 33
-24 32 -37 -2 -19 -19 10 -21 9 -18 -6 3 -16 76 -50 86 -40 6 6 -56 84 -95
120 -39 36 -42 56 -8 56 14 0 25 6 25 13 0 15 -30 46 -44 45 -12 -1 -76 51
-76 62 0 13 31 1 58 -23 30 -27 28 -10 -2 22 -30 32 -45 81 -24 81 8 0 19 -5
26 -12 17 -17 27 -2 12 17 -17 21 -4 32 20 17 25 -15 30 -15 30 2 0 8 -6 17
-12 19 -10 4 -10 6 -1 6 8 1 3 15 -12 37 -15 23 -25 51 -25 73 0 25 -8 45 -25
64 -19 20 -22 27 -10 27 19 0 105 -40 105 -49 0 -4 27 -26 60 -49 33 -24 60
-47 60 -51 0 -12 39 -21 45 -11 3 5 -4 11 -15 15 -11 3 -20 10 -20 14 0 4 -9
17 -20 29 -17 18 -18 22 -5 22 8 0 15 -4 15 -10 0 -5 9 -10 19 -10 29 0 15 35
-28 67 -39 31 -49 52 -29 64 20 13 16 32 -12 51 -14 9 -37 27 -52 40 l-27 23
22 16 c22 16 25 15 80 -22 51 -35 56 -37 46 -15 -6 13 -31 39 -56 58 -25 18
-49 41 -54 51 -6 10 -14 15 -20 12 -5 -4 -9 1 -9 9 0 9 -14 23 -31 31 -43 23
-32 41 24 37 29 -2 80 -20 138 -48 50 -25 98 -43 107 -42 12 3 8 9 -15 21 -18
9 -36 23 -40 30 -4 7 -23 23 -40 36 -18 12 -33 30 -33 39 -1 9 -21 33 -47 52
-25 19 -60 47 -77 62 l-31 27 34 -9 c19 -5 37 -8 39 -6 3 4 -12 15 -103 72
-25 15 -27 19 -12 22 10 2 23 -1 30 -6 20 -15 47 -22 47 -11 0 5 -12 15 -27
21 -26 11 -27 12 -6 15 19 4 52 -5 128 -33 17 -6 17 -4 -4 14 -13 12 -28 22
-33 22 -18 0 -68 45 -68 61 0 15 7 17 57 12 41 -5 54 -3 49 5 -4 7 -16 12 -27
12 -10 0 -19 4 -19 9 0 5 -15 12 -33 15 -51 10 -78 33 -71 62 5 21 3 24 -20
24 -14 0 -40 12 -58 28 -18 15 -45 34 -60 41 -16 8 -28 18 -28 23 0 11 14 10
26 -1 16 -16 94 -24 94 -10 0 7 -3 10 -6 6 -4 -3 -21 1 -38 11 l-31 17 40 5
40 5 -37 23 c-44 27 -47 34 -15 28 64 -14 117 -16 117 -7 0 6 -11 11 -24 11
-30 0 -115 75 -94 83 8 3 5 6 -7 6 -11 1 -36 15 -55 31 l-35 30 71 -6 c43 -4
78 -2 90 4 18 10 17 11 -9 21 -16 6 -35 11 -42 11 -16 0 -125 50 -125 57 0 2
10 3 23 2 46 -4 127 1 127 9 0 4 -26 15 -58 24 -34 10 -73 31 -96 53 -22 19
-43 35 -48 35 -4 0 -8 4 -8 9 0 17 61 31 106 24 55 -7 60 11 6 28 -21 6 -49
19 -63 30 l-24 19 32 0 c25 0 31 4 27 15 -7 17 31 22 41 5 3 -5 1 -10 -6 -10
-7 0 -9 -3 -6 -6 4 -4 13 -2 20 4 8 7 17 8 21 4 4 -4 4 7 0 23 -4 17 -13 34
-21 38 -8 5 -13 20 -11 35 2 22 -3 30 -31 43 -45 21 -25 33 41 24 67 -9 57 3
-37 50 -77 38 -87 48 -58 59 12 5 14 9 5 18 -23 23 -14 40 21 38 58 -3 67 -1
67 20 0 14 -14 27 -47 43 -27 13 -47 28 -46 34 1 6 -12 13 -30 16 -18 3 -45
10 -62 17 -43 17 -15 30 67 30 60 0 66 2 61 19 -4 15 3 20 31 25 45 9 40 20
-18 37 l-43 13 1 50 c1 45 -1 50 -24 56 -20 6 -22 9 -9 14 10 4 23 7 30 5 8
-1 27 -1 42 0 38 1 24 21 -16 22 -36 0 -41 -5 54 55 l49 31 -30 6 c-21 5 -28
11 -24 22 4 9 0 15 -10 15 -20 0 -86 31 -86 41 0 13 33 19 46 8 7 -6 25 -9 41
-7 26 4 25 5 -14 17 -42 14 -56 35 -30 44 9 3 9 8 -2 21 -15 18 -10 29 17 32
9 2 33 6 52 10 l35 7 -30 7 c-17 3 -33 1 -37 -4 -4 -7 -17 -1 -32 14 -30 27
-33 40 -10 40 8 0 12 5 9 11 -4 5 -21 9 -37 7 -18 -2 -33 2 -35 10 -3 8 6 12
26 12 16 0 33 5 36 10 3 6 -3 10 -13 10 -20 0 -36 25 -27 40 2 4 18 13 34 20
27 11 29 16 25 44 -3 17 -7 37 -10 43 -2 7 10 20 26 28 38 20 38 26 0 19 -16
-4 -30 -5 -30 -3 0 2 9 28 20 57 11 29 20 76 20 107 0 69 17 150 35 165 8 6
11 18 8 26 -3 9 4 29 16 45 12 16 24 43 28 61 3 18 12 40 20 49 11 14 12 19 1
31 -21 22 -20 39 4 75 17 25 28 32 43 28 34 -10 40 -10 45 0 3 6 -8 11 -23 13
-36 4 -43 23 -23 63 13 26 14 34 4 41 -10 7 -10 11 2 21 30 23 180 373 180
418 0 9 14 43 31 77 16 34 32 74 33 89 2 15 4 31 5 35 0 4 16 12 34 17 30 9
30 10 10 16 -34 11 -31 57 5 85 18 14 23 23 15 26 -7 3 -13 23 -13 45 0 32 3
39 20 39 11 0 20 5 20 10 0 6 -4 10 -10 10 -22 0 -8 30 17 36 23 6 24 8 9 19
-9 7 -14 19 -10 29 3 9 1 16 -5 16 -14 0 -3 57 19 96 15 27 47 169 39 176 -1
2 4 14 11 28 8 14 13 32 12 41 -2 9 11 29 29 43 29 25 30 28 14 40 -15 11 -15
14 -3 27 10 10 15 37 15 85 1 44 7 83 17 102 10 19 14 42 10 61 -6 28 -4 31
19 31 25 0 25 1 12 27 -15 28 -11 179 6 197 4 5 2 17 -4 27 -9 14 -8 22 6 37
18 19 23 67 9 76 -5 3 -7 56 -6 118 2 69 -1 122 -8 135 -8 17 -8 26 1 37 7 8
10 20 6 27 -4 6 -16 50 -26 97 -19 87 -19 87 1 115 12 15 17 27 13 26 -21 -4
-33 3 -33 17 0 13 -7 15 -30 11 -27 -6 -30 -4 -41 32 -8 29 -8 43 0 60 13 24
6 26 -34 11 -50 -19 -47 3 4 32 58 33 63 49 8 23 -20 -9 -46 -15 -59 -13 -21
4 -20 6 14 21 20 9 39 21 42 26 6 10 -68 -10 -80 -22 -4 -4 -16 -7 -27 -7 -16
0 -17 3 -7 15 15 17 12 18 -57 15 -29 -1 -53 2 -53 7 0 5 22 34 50 63 27 29
48 56 45 58 -3 3 -13 -2 -22 -11 -10 -8 -42 -27 -72 -41 -42 -19 -59 -22 -79
-15 -13 5 -40 7 -58 3 -33 -6 -47 7 -24 21 6 3 10 10 10 15 0 5 -25 -2 -55
-16 -63 -27 -86 -30 -115 -11 -17 10 -27 8 -60 -11 -39 -22 -40 -22 -40 -2 0
20 0 20 -42 1 -61 -27 -168 -60 -168 -52 0 4 5 12 12 19 21 21 -4 13 -41 -12
-48 -33 -141 -69 -141 -55 0 8 -5 8 -15 -1 -8 -6 -18 -9 -23 -6 -11 6 -148
-70 -201 -111 -43 -34 -88 -63 -97 -63 -3 0 -3 8 0 17 4 9 -16 -5 -43 -30 -48
-45 -77 -63 -51 -32 32 39 -11 7 -101 -75 -55 -49 -104 -90 -111 -90 -6 0 -2
10 10 23 12 13 22 26 22 30 0 10 -168 -160 -207 -208 -32 -41 -54 -44 -33 -5
6 12 9 25 5 28 -8 8 -41 -32 -59 -73 -8 -16 -56 -73 -108 -125 -51 -52 -122
-130 -157 -172 -35 -43 -71 -80 -80 -83 -9 -2 -37 -25 -63 -50 -52 -49 -73
-57 -63 -24 5 15 4 19 -4 15 -6 -4 -11 -15 -11 -25 0 -9 -6 -23 -12 -31 -11
-12 -10 -12 7 0 11 8 4 -2 -15 -21 -19 -19 -45 -48 -57 -64 -18 -26 -22 -28
-28 -12 -4 10 -1 27 7 40 9 12 15 26 16 31 0 5 6 12 12 16 8 5 7 9 -4 13 -11
4 -20 -4 -31 -27 -19 -40 -115 -134 -131 -129 -7 2 -22 -11 -35 -29 -26 -36
-134 -148 -143 -148 -3 0 -3 15 1 33 6 29 5 31 -10 19 -9 -8 -19 -22 -22 -33
-8 -25 -35 -24 -35 1 0 11 -4 20 -9 20 -5 0 -12 8 -14 18 -4 16 -5 16 -6 0 0
-10 -6 -18 -12 -18 -14 0 -8 30 15 83 30 68 0 30 -39 -50 -24 -47 -41 -71 -44
-62 -3 8 -15 14 -25 14 -14 0 -27 -18 -46 -64 l-28 -64 -16 25 c-9 14 -14 33
-10 42 8 21 -4 86 -17 86 -10 0 -13 -8 -23 -52 -4 -16 -11 -28 -18 -28 -7 0
-9 17 -4 56 5 43 3 55 -6 51 -7 -2 -18 5 -24 16 -10 18 -13 16 -26 -24 -9 -27
-22 -45 -33 -47 -14 -3 -17 1 -11 21 3 14 2 28 -3 31 -4 3 -11 -15 -15 -39 -8
-62 -66 -139 -66 -89 0 12 -6 15 -21 11 -19 -5 -21 -2 -17 24 4 25 2 28 -13
24 -15 -5 -20 1 -25 32 -8 49 -38 66 -90 50 -42 -13 -48 -6 -58 56 -6 36 -8
38 -20 22 -15 -20 -36 -13 -36 13 0 13 -3 12 -16 -6 -8 -12 -18 -22 -22 -22
-9 0 -39 58 -45 85 -3 18 -5 17 -17 -8 -17 -34 -36 -30 -32 7 2 18 -1 25 -7
21 -6 -3 -11 -1 -11 4 0 6 -4 11 -10 11 -5 0 -10 -14 -10 -31 0 -22 -5 -32
-19 -36 -12 -3 -23 -17 -26 -35 -4 -16 -13 -32 -20 -34 -8 -3 -12 -14 -10 -25
2 -10 -1 -21 -6 -25 -6 -3 -7 18 -3 60 5 47 3 66 -5 66 -6 0 -11 -12 -11 -27
-1 -34 -45 -92 -59 -78 -5 6 -11 24 -13 40 -2 17 -7 30 -13 29 -10 0 -29 -33
-40 -68 -5 -17 -6 -16 -24 5 l-18 23 -7 -22 c-10 -30 -24 -28 -28 6 -3 22 -6
17 -21 -30 -20 -64 -68 -123 -96 -115 -12 3 -21 -7 -34 -37 -12 -29 -27 -45
-49 -55 -18 -8 -40 -20 -50 -28 -19 -17 -100 -9 -135 13 -13 8 -23 12 -23 9 0
-4 -9 0 -21 8 -11 8 -30 12 -41 9 -17 -4 -19 -2 -13 18 4 12 3 21 -1 18 -5 -2
-30 -14 -55 -27 -53 -27 -98 -23 -106 10 -5 17 -11 19 -32 13 -29 -8 -40 -8
-94 -6 -31 2 -39 7 -48 29 -7 20 -13 23 -21 15 -20 -20 -58 -15 -58 8 0 22
-20 26 -51 10 -16 -9 -25 -5 -54 24 -19 20 -35 41 -35 47 0 8 -7 6 -18 -4 -25
-23 -32 -21 -32 8 0 25 -14 33 -25 15 -10 -16 -26 -11 -23 8 2 14 -5 17 -37
18 -22 0 -47 -3 -55 -7 -10 -5 -24 1 -38 16 -19 19 -27 21 -64 15 -50 -9 -58
-6 -58 22 0 20 -1 20 -19 4 -11 -10 -24 -15 -30 -12 -5 4 -12 2 -16 -4 -12
-19 -27 2 -21 29 l6 26 -25 -30 -25 -30 0 43 0 43 -26 -20 c-26 -21 -54 -28
-54 -14 0 21 26 73 36 73 6 0 14 7 17 14 4 10 1 13 -9 9 -10 -4 -12 0 -8 11 3
9 10 14 14 11 11 -7 22 27 12 37 -5 5 -27 -6 -51 -27 -24 -19 -47 -35 -51 -35
-5 0 -15 -3 -24 -6 -22 -8 -20 12 3 45 23 32 28 133 7 125 -23 -9 -39 23 -28
55 8 22 7 34 -3 48 -8 10 -11 28 -8 41 8 35 -27 28 -68 -14 -21 -21 -41 -33
-51 -31 -11 3 -20 -2 -23 -13 -6 -18 -35 -37 -35 -22 0 4 12 25 25 47 14 22
25 46 25 53 0 19 -20 14 -39 -9 l-17 -22 -26 25 -27 24 20 43 c10 24 19 51 18
60 0 11 -3 8 -10 -7 -5 -13 -29 -44 -53 -68 -32 -34 -50 -45 -67 -42 -22 3
-24 7 -20 52 4 58 -4 56 -60 -20 -41 -56 -66 -71 -55 -31 4 12 9 36 11 52 4
26 4 27 -3 5 -6 -20 -9 -22 -14 -9 -4 11 -14 15 -32 12 -21 -4 -24 -2 -19 17
5 19 3 21 -17 15 -20 -6 -22 -5 -16 18 8 32 -9 77 -29 77 -8 0 -24 14 -34 31
-18 29 -19 30 -26 10 -7 -22 -25 -29 -25 -10 0 5 -10 3 -22 -5 -32 -23 -38
-20 -38 15 0 17 -4 28 -10 24 -5 -3 -10 -19 -10 -36 0 -16 -6 -30 -12 -30 -7
-1 -52 -2 -100 -3 -67 -1 -88 2 -88 12 0 9 -7 11 -19 7 -24 -7 -51 38 -51 85
0 22 -6 33 -17 37 -27 8 -100 123 -108 171 -4 23 -11 42 -16 42 -5 0 -9 -4 -9
-10 0 -5 -6 -10 -12 -10 -12 0 -55 95 -74 160 -4 14 -15 31 -25 38 -9 6 -25
36 -35 65 -9 28 -34 84 -55 123 -22 39 -57 114 -78 167 -22 54 -48 109 -59
125 -10 15 -65 119 -122 232 -56 113 -118 230 -136 261 -19 31 -34 61 -34 65
0 5 -18 36 -40 69 -22 33 -40 65 -40 71 0 6 -11 21 -25 34 -14 13 -25 28 -25
34 0 14 -96 134 -166 208 -30 31 -54 66 -54 77 0 11 -5 23 -12 27 -8 5 -9 2
-5 -9 11 -28 -5 -19 -53 28 -25 24 -52 44 -60 45 -9 0 -45 29 -80 65 -36 36
-70 63 -76 61 -6 -3 -23 3 -36 12 -14 9 -44 29 -66 45 l-42 27 -182 -1 c-101
-1 -194 -4 -207 -6z m346 -5546 c-4 7 0 13 10 16 44 11 248 -7 258 -23 3 -4
-27 -29 -65 -54 -39 -26 -70 -49 -70 -51 0 -2 -3 -10 -6 -19 -10 -26 12 -18
24 9 6 14 18 25 27 25 22 0 19 -7 -28 -63 -48 -57 -98 -142 -115 -197 -7 -19
-13 -84 -15 -145 -2 -60 -7 -118 -12 -128 -5 -13 -3 -16 7 -12 11 4 24 -14 46
-63 50 -113 147 -192 234 -192 31 0 142 56 196 98 20 16 43 27 51 24 8 -2 11
0 8 5 -4 6 8 30 26 54 96 126 143 254 133 364 -4 43 -3 65 3 56 5 -8 7 -20 4
-27 -3 -8 2 -11 16 -7 11 3 17 11 15 18 -3 7 1 15 9 18 16 6 87 -65 119 -119
28 -47 37 -177 18 -242 -9 -28 -21 -57 -28 -64 -7 -7 -12 -24 -12 -38 0 -15
-9 -35 -19 -44 -11 -10 -22 -29 -26 -43 -5 -22 -10 -24 -35 -19 -28 5 -29 4
-20 -20 29 -76 -13 -169 -95 -209 -119 -58 -394 -85 -520 -51 -79 21 -188 72
-196 93 -8 22 -50 62 -81 77 -15 7 -23 22 -25 40 -3 38 -23 59 -24 26 -1 -14
-1 -28 0 -32 5 -34 -71 50 -89 97 -6 15 -10 35 -10 46 0 17 3 18 21 9 32 -17
31 -8 -1 30 -17 20 -31 48 -31 65 -2 30 -2 30 -9 -5 -6 -35 -7 -35 -17 -10
-13 32 -11 206 2 203 6 -1 10 29 11 70 1 83 14 140 50 205 48 90 85 134 168
204 57 48 59 49 79 31 11 -10 17 -13 14 -6z m-296 -140 c-11 -30 -25 -67 -34
-83 -8 -16 -27 -65 -42 -109 -23 -66 -28 -98 -29 -186 -1 -76 -4 -105 -13
-102 -29 11 -26 285 3 328 8 11 14 32 14 47 0 15 6 31 14 35 7 4 19 19 26 33
17 33 63 90 72 90 4 0 -1 -24 -11 -53z m4011 -964 c17 -15 20 -15 29 -3 8 14
6 -54 -6 -149 -4 -29 4 -68 30 -157 5 -14 1 -23 -9 -27 -22 -9 -20 -27 2 -27
11 0 28 -17 42 -42 13 -23 39 -59 58 -80 33 -37 34 -39 18 -63 -9 -14 -14 -30
-11 -35 10 -16 35 -12 35 5 0 21 12 19 65 -9 25 -14 60 -26 78 -28 20 -2 33
-9 33 -18 1 -8 2 -19 3 -25 0 -5 14 4 29 21 15 17 50 39 77 49 28 10 59 27 71
37 11 10 25 18 31 18 7 0 21 14 34 31 17 24 27 29 44 25 29 -7 55 2 55 19 0 8
-9 10 -25 7 -30 -5 -31 -3 -4 42 27 46 53 49 44 6 -9 -41 1 -38 20 6 17 41 21
89 5 64 -5 -8 -11 -12 -14 -9 -8 8 14 82 30 99 12 12 14 11 14 -10 0 -37 15
-12 36 58 18 61 62 122 89 122 8 0 22 -18 31 -40 10 -23 30 -46 44 -53 17 -8
28 -25 35 -52 5 -22 12 -42 16 -45 4 -3 6 -38 5 -77 -2 -52 -9 -81 -24 -105
-34 -53 -63 -114 -60 -125 9 -30 -136 -155 -237 -206 -179 -89 -437 -121 -580
-71 -22 7 -50 14 -62 14 -16 0 -28 11 -40 36 -20 40 -36 46 -41 14 -4 -24 -10
-25 -34 -3 -24 21 -23 33 2 33 11 0 20 5 20 10 0 6 -14 10 -32 10 -40 0 -68
25 -68 61 0 23 -8 32 -39 49 -22 11 -44 27 -49 36 -5 9 -20 17 -33 18 -20 1
-24 6 -24 31 0 17 -4 36 -9 43 -4 7 -5 16 -1 20 3 3 10 0 14 -7 16 -25 21 7 6
35 -8 16 -15 55 -15 87 0 50 -4 61 -26 82 l-27 25 17 63 c14 50 25 69 53 93
20 16 44 36 53 44 28 25 59 40 83 40 13 0 27 4 33 9 5 5 20 11 34 14 14 2 27
5 29 6 3 0 13 -7 23 -16z"/>
</g>
</svg>
